<mxfile host="app.diagrams.net" modified="2023-04-15T19:37:38.700Z" agent="Mozilla/5.0 (X11; Linux x86_64) AppleWebKit/537.36 (KHTML, like Gecko) Chrome/110.0.0.0 Safari/537.36" version="21.1.4" etag="sZehmI-8hes26OfJSzrQ" type="github">
  <diagram name="Page-1" id="sR1uYgtzf8K-KDUUYCDu">
    <mxGraphModel>
      <root>
        <mxCell id="0" />
        <mxCell id="1" parent="0" />
      </root>
    </mxGraphModel>
  </diagram>
</mxfile>
